# xmcd
#
# Track frame offsets: 
#        150
#        14300
#        26295
#        39732
#        52260
#        64867
#        76955
#        90117
#        105437
#        114067
#        126327
#        134607
#
# Disc length: 1940 seconds
#
# Revision: 0
# Processed by: cddbd v1.4PL0 Copyright (c) Steve Scherf et al.
# Submitted via: ExactAudioCopy v0.90b4
#
DISCID=9207920c
DTITLE=Joe Goldmark - Steelin' The Beatles
DYEAR=1997
DGENRE=Country
TTITLE0=Day Tripper
TTITLE1=The Night Before
TTITLE2=I'm Only Sleeping
TTITLE3=You Can't Do That
TTITLE4=Awaiting On You All
TTITLE5=Flying
TTITLE6=Penny Lane
TTITLE7=She's A Woman
TTITLE8=Baby's In Black
TTITLE9=She Came In Through The Bathroom Window
TTITLE10=I Will
TTITLE11=Bad To Me
EXTD=
EXTT0=
EXTT1=
EXTT2=
EXTT3=
EXTT4=
EXTT5=
EXTT6=
EXTT7=
EXTT8=
EXTT9=
EXTT10=
EXTT11=
PLAYORDER=
